<svg height="512" viewBox="0 0 64 64" width="512" xmlns="http://www.w3.org/2000/svg"><path d="m57.75 18.75-.26 1.6a.994.994 0 0 1 -1.87.3l-.74-1.45-1.61.26a1 1 0 0 1 -.86-1.7l1.15-1.15-.74-1.44a1 1 0 0 1 1.35-1.35l1.44.74 1.15-1.15a1 1 0 0 1 1.7.86l-.26 1.61 1.45.74a.994.994 0 0 1 -.3 1.87z" fill="#bddbff"/><path d="m10.46 9.27-.26 1.61 1.45.74a.994.994 0 0 1 -.3 1.87l-1.6.26-.26 1.6a.994.994 0 0 1 -1.87.3l-.74-1.45-1.61.26a1 1 0 0 1 -.86-1.7l1.15-1.15-.74-1.44a1 1 0 0 1 1.35-1.35l1.44.74 1.15-1.15a1 1 0 0 1 1.7.86z" fill="#bddbff"/><path d="m38 17a2.015 2.015 0 0 1 -2 2h-8a2.006 2.006 0 0 1 -2-2 2.015 2.015 0 0 1 2-2h8a2.006 2.006 0 0 1 2 2z" fill="#bddbff"/><path d="m40 49v3h-16v-3a6 6 0 0 1 6-6l2 2 2-2a6 6 0 0 1 6 6z" fill="#bddbff"/><path d="m37 33v2h-1.17a2.006 2.006 0 0 1 -1.42-.59l-1.41-1.41-.83.83a4 4 0 0 1 -2.83 1.17h-2.34v-2a5 5 0 0 1 10 0z" fill="#bddbff"/><g fill="#3d9ae2"><path d="m38.669 18.342a2.948 2.948 0 0 0 -1.157-3.918l5.345-8.909a1 1 0 0 0 -.857-1.515 2.58 2.58 0 0 1 -1.873-.781 4.61 4.61 0 0 0 -6.246 0 2.644 2.644 0 0 1 -3.752 0 4.618 4.618 0 0 0 -6.252 0 2.588 2.588 0 0 1 -1.877.781 1 1 0 0 0 -.857 1.515l5.345 8.909a2.948 2.948 0 0 0 -1.157 3.918 21.019 21.019 0 0 0 -17.331 20.658v16a7.008 7.008 0 0 0 7 7h34a7.008 7.008 0 0 0 7-7v-16a21.019 21.019 0 0 0 -17.331-20.658zm-13.543-13.561a2.646 2.646 0 0 1 3.754 0 4.615 4.615 0 0 0 6.25 0 2.638 2.638 0 0 1 3.747 0 5.52 5.52 0 0 0 1.522.944l-4.965 8.275h-6.868l-4.966-8.274a5.511 5.511 0 0 0 1.526-.945zm2.874 13.219a1 1 0 0 1 0-2h8a1 1 0 0 1 0 2zm26 37a5.006 5.006 0 0 1 -5 5h-34a5.006 5.006 0 0 1 -5-5v-16a19.021 19.021 0 0 1 19-19h6a19.021 19.021 0 0 1 19 19z"/><path d="m35 42.071v-1.1a4.977 4.977 0 0 0 2-3.971v-1a1 1 0 0 0 1-1v-2a6 6 0 0 0 -12 0v2a1 1 0 0 0 1 1v1a4.977 4.977 0 0 0 2 3.974v1.1a7.011 7.011 0 0 0 -6 6.926v3a1 1 0 0 0 1 1h16a1 1 0 0 0 1-1v-3a7.011 7.011 0 0 0 -6-6.929zm-7-9.071a4 4 0 0 1 8 0v1h-.171a1 1 0 0 1 -.708-.293l-1.414-1.414a1 1 0 0 0 -1.414 0l-.829.829a3.02 3.02 0 0 1 -2.121.878h-1.343zm1.343 3a4.966 4.966 0 0 0 3.535-1.464l.122-.122.707.707a2.96 2.96 0 0 0 1.293.749v1.13a3 3 0 0 1 -6 0v-1zm2.657 6a5 5 0 0 0 1-.1v.687l-1 1-1-1v-.687a5 5 0 0 0 1 .1zm7 9h-14v-2a4.991 4.991 0 0 1 4.624-4.962l1.669 1.669a1 1 0 0 0 1.414 0l1.669-1.669a4.991 4.991 0 0 1 4.624 4.962z"/><path d="m8.819 17.171a1.97 1.97 0 0 0 1.663-1.662l.14-.887.887-.14a2 2 0 0 0 .595-3.758l-.8-.408.141-.887a2 2 0 0 0 -3.39-1.729l-.635.634-.8-.407a2 2 0 0 0 -2.69 2.692l.407.8-.634.635a2 2 0 0 0 1.727 3.39l.886-.141.408.8a1.965 1.965 0 0 0 1.767 1.097 2.034 2.034 0 0 0 .328-.029zm-1.941-3.971a1.038 1.038 0 0 0 -.157.012l-1.6.254 1.144-1.146a1 1 0 0 0 .184-1.16l-.749-1.453h.012l1.448.737a1 1 0 0 0 1.16-.184l1.149-1.144-.254 1.605a1 1 0 0 0 .534 1.048l1.447.737-1.6.254a1 1 0 0 0 -.832.832l-.254 1.6-.737-1.447a1 1 0 0 0 -.895-.545z"/><path d="m60.1 15.724-.8-.408.141-.887a2 2 0 0 0 -3.39-1.726l-.635.634-.8-.407a2 2 0 0 0 -2.689 2.689l.407.8-.634.635a2 2 0 0 0 1.727 3.39l.886-.141.408.8a1.965 1.965 0 0 0 1.77 1.097 2.034 2.034 0 0 0 .328-.027 1.97 1.97 0 0 0 1.663-1.662l.14-.887.887-.14a2 2 0 0 0 .595-3.758zm-2.508 2.036a1 1 0 0 0 -.832.832l-.254 1.6-.737-1.447a1 1 0 0 0 -.891-.546 1.038 1.038 0 0 0 -.157.012l-1.6.254 1.148-1.149a1 1 0 0 0 .184-1.16l-.75-1.453h.012l1.448.737a1 1 0 0 0 1.16-.184l1.149-1.149-.254 1.605a1 1 0 0 0 .534 1.048l1.447.737z"/><path d="m43 29h2v2h-2z"/><path d="m46 34h2v2h-2z"/><path d="m44 45h2v2h-2z"/><path d="m49 41h2v2h-2z"/><path d="m46 52h2v2h-2z"/><path d="m41 39h2v2h-2z"/><path d="m19 29h2v2h-2z"/><path d="m16 34h2v2h-2z"/><path d="m18 45h2v2h-2z"/><path d="m13 41h2v2h-2z"/><path d="m16 52h2v2h-2z"/><path d="m21 39h2v2h-2z"/></g></svg>