<svg id="Layer_1" enable-background="new 0 0 512.13 512.13" height="512" viewBox="0 0 512.13 512.13" width="512" xmlns="http://www.w3.org/2000/svg"><path d="m511.456 229.4-4.39 15.38c-7.64 26.73-30.14 46.45-56.9 51.14-18.062 63.085-71.127 110.386-135.46 120.86-1.231.207-2.545.247-3.06.21l5.13 43.99 12.09 19.02h15.21c8.84 0 16 7.16 16 16s-7.16 16-16 16h-24c-5.47 0-10.57-2.8-13.5-7.42-17.679-27.823-37.612-59.19-53.33-83.92l-53.13 3.43c-8.1 7.28-17.67 12.91-28.28 16.52-40.969 16.521-38.999 15.965-42.02 16.3-.358.031-5.791.631-23.73 2.6l27.32 20.49h18.67c8.84 0 16 7.16 16 16s-7.16 16-16 16c-24.576 0-27.937 1.053-33.6-3.2-68.002-51.007-66.437-49.118-68.37-52.99-2.868-5.257-2.573-11.254.08-15.75 1.383-2.568-5.063 8.878 14.28-25-15.81-19.71-24.39-44.02-24.39-69.66v-11.6c-30.27-6.811-29.711-6.301-33.16-8.68-.104-.104-2.747-1.787-4.54-4.86-2.421-4.037-3.049-8.966-1.31-13.8 1.905-5.142 14.95-26.708 35.05-45.62 30.5-28.68 67.83-43.84 107.96-43.84h133.76l45.66-13.05c6.131-16.326 16.072-32.125 29.32-43.16-9.993-30.437-24.993-80.881-27.78-112.68-.77-8.79-3.12-35.55 16.49-42.31 1.99-.69 4.03-.96 6.01-.86 11.75-1.08 25.44 1.17 37.05 12.5 4.41-8.9 11.62-17.44 23.49-17.44 12.69 0 23.55 5.14 31.41 14.86 25.785 31.916 11.17 102.166 3.41 140.1 28.069 13.106 53.878 39.051 67.07 62.1 2.14 3.74 2.68 8.19 1.49 12.34z" fill="#8bc4ff"/><path d="m473.106 174.36c-8.06 25.78-17.36 47.42-25.03 57.64-24 32-48 32-72 32-16 72-40 96-80 96-49.386 0-83.78-22.05-104-48 1.45 22.46-16 80-72 80-43.081 0-64-72-64-72s0 9.52-16 20.57v-6.77c-27.839-6.264-27.42-6.19-27.52-6.19-8.925-1.982-14.384-11.205-11.9-19.89 2.803-9.531 20.571-32.872 35.46-46.88 30.5-28.68 67.83-43.84 107.96-43.84h133.76l45.66-13.05c6.131-16.326 16.072-32.125 29.32-43.16-9.993-30.437-24.993-80.881-27.78-112.68-.77-8.79-3.12-35.55 16.49-42.31 1.99-.69 4.03-.96 6.01-.86 11.75-1.08 25.44 1.17 37.05 12.5 4.41-8.9 11.62-17.44 23.49-17.44 12.69 0 23.55 5.14 31.41 14.86 25.785 31.916 11.17 102.166 3.41 140.1 11.48 5.36 21.58 12.22 30.21 19.4z" fill="#b9dcff"/><g fill="#2e58ff"><path d="m218.539 399.85c28.069-56.061-12.963-118.85-72.646-118.85-8.836 0-16 7.164-16 16s7.164 16 16 16c35.86 0 61.48 37.675 44.028 72.532-5.927 11.855-16.117 20.693-28.692 24.885-.711.237 1.815-.764-39.135 15.744-8.196 3.304-12.162 12.626-8.857 20.821 3.32 8.238 12.665 12.146 20.822 8.857l37.78-15.23c20.457-6.96 37.032-21.421 46.7-40.759z"/><path d="m54.476 460.8 64 48c5.759 4.319 9.379 3.2 33.6 3.2 8.836 0 16-7.164 16-16s-7.164-16-16-16h-18.667l-48.434-36.325 12.993-22.736c3.58-6.265 2.523-14.15-2.579-19.252-15.034-15.034-23.313-35.023-23.313-56.285v-24.402c0-8.836-7.164-16-16-16s-16 7.164-16 16c0 27.697-3.095 59.786 24.393 94.063l-14.285 24.999c-4.004 7.006-2.164 15.896 4.292 20.738z"/><path d="m328.865 480-56.406-88.756 26.93-26.93c6.249-6.248 6.249-16.379 0-22.627-6.248-6.249-16.379-6.249-22.627 0l-36 36c-5.3 5.3-6.21 13.569-2.19 19.896l68 107c2.936 4.62 8.03 7.418 13.504 7.418h24c8.836 0 16-7.164 16-16s-7.164-16-16-16h-15.211z"/><path d="m450.17 295.915c26.753-4.703 49.26-24.413 56.894-51.135l4.396-15.384c1.184-4.145.646-8.591-1.492-12.333-20.761-36.333-65.057-71.694-109.678-72.737.545-24.93 2.917-87.882 12.318-111.207.703.456 1.344 1.065 1.983 1.855 11.443 14.141 7.963 60.956 1.839 89.675-1.852 8.641 3.652 17.146 12.292 18.998 8.644 1.852 17.146-3.652 18.998-12.292.177-.829 4.366-20.567 5.845-43.936 2.177-34.406-2.43-58.14-14.085-72.557-7.858-9.724-18.718-14.862-31.404-14.862-20.742 0-27.257 26.057-29.397 34.62-5.209 20.834-7.677 50.198-8.927 71.751-4.328-15.641-15.13-56.92-12.933-73.014 5.082-4.116 7.309-11.119 5.051-17.659-2.884-8.353-11.993-12.785-20.346-9.902-19.604 6.768-17.259 33.524-16.488 42.316 2.786 31.782 17.79 82.254 27.774 112.681-13.431 11.196-23.308 27.128-29.31 43.159l-45.665 13.048h-133.759c-40.13 0-77.462 15.161-107.961 43.845-22.783 21.427-33.853 43.019-34.313 43.928-5.424 10.712 2.471 23.231 14.262 23.231 5.84 0 11.469-3.209 14.287-8.776.355-.703 36.451-70.228 113.725-70.228 148.528 0 137.293.271 140.396-.616l56-16c5.498-1.571 9.725-5.896 11.112-11.444.527-2.042 13.384-49.937 54.23-44.101 37.883 5.412 63.875 37.799 72.882 50.753l-2.399 8.396c-4.881 17.082-20.697 29.012-38.462 29.012-16.353 0-28.768.717-45.57-9.292-7.592-4.522-17.412-2.035-21.935 5.557-4.522 7.591-2.035 17.412 5.557 21.935 12.371 7.37 26.195 11.901 40.451 13.318-16.947 46.195-57.93 80.542-106.892 88.701-8.716 1.452-14.605 9.696-13.152 18.412s9.697 14.606 18.412 13.152c64.641-10.772 117.393-57.756 135.464-120.868z"/></g></svg>