<svg height="512" viewBox="0 0 64 64" width="512" xmlns="http://www.w3.org/2000/svg"><path d="m30 49v5a3 3 0 0 0 3 3 1.27 1.27 0 0 1 1.24 1l.44 1.75a1.69 1.69 0 0 0 1.64 1.25 1.68 1.68 0 0 0 1.68-1.68v-10.32z" fill="#e59730"/><path d="m44 39a6 6 0 0 0 -4-5.66c0-.11 0-.22 0-.34a7 7 0 0 0 -7-7 4.93 4.93 0 0 0 -.55 0 10.48 10.48 0 0 0 -18.46 1 6.5 6.5 0 0 0 -.99 0 7 7 0 0 0 -7 6.41 5 5 0 1 0 5.05 8.5 6 6 0 0 0 9.07 4.19 5 5 0 0 0 2.88.9 5.08 5.08 0 0 0 2.06-.45 5 5 0 0 0 4.94 4.45h.18a3 3 0 0 0 5.64 0h.18a5 5 0 0 0 4.7-6.65 6 6 0 0 0 3.3-5.35z" fill="#f9e109"/><path d="m39 46h-.18a3 3 0 0 1 -5.64 0h-.18a5 5 0 0 1 -4.94-4.45 5.08 5.08 0 0 1 -2.06.45 5 5 0 0 1 -2.45-.66 10 10 0 0 1 -13.55-9.34 9.79 9.79 0 0 1 1.22-4.76 7 7 0 0 0 -5.22 6.17 5 5 0 1 0 5.05 8.5 6 6 0 0 0 9.07 4.19 5 5 0 0 0 2.88.9 5.08 5.08 0 0 0 2.06-.45 5 5 0 0 0 4.94 4.45h.18a3 3 0 0 0 5.64 0h.18a5 5 0 0 0 5-5c0-.14 0-.27 0-.4a4.91 4.91 0 0 1 -2 .4z" fill="#fcbc04"/><path d="m20 36a3 3 0 0 1 3 3 4 4 0 0 1 4 4 4.17 4.17 0 0 1 -.07.71 4 4 0 0 0 -2.08-6.62 3 3 0 0 0 -5.09-1.09z" fill="#fcbc04"/><path d="m18.27 26.41a6.78 6.78 0 0 0 -2.61-1.87 10.34 10.34 0 0 0 -1.66 2.54 7 7 0 0 1 4.29 2.33 3.9 3.9 0 0 1 1.71-.41 5 5 0 0 1 2.79-1.84 4 4 0 0 0 -2.79-1.16 3.9 3.9 0 0 0 -1.73.41z" fill="#fcbc04"/><path d="m24 27a5 5 0 0 1 5 5 5.69 5.69 0 0 1 -.07.71 4 4 0 0 0 -5.64-5.64 5.69 5.69 0 0 1 .71-.07z" fill="#fcbc04"/><g fill="#e59730"><path d="m17 44a3 3 0 0 1 -3-3 1 1 0 0 1 2 0 1 1 0 0 0 1 1 1 1 0 0 1 0 2z"/><path d="m10 35a1 1 0 0 1 -1-1 4 4 0 0 1 4-4 1 1 0 0 1 0 2 2 2 0 0 0 -2 2 1 1 0 0 1 -1 1z"/><path d="m8 40a2 2 0 0 1 -2-2 1 1 0 0 1 2 0 1 1 0 0 1 0 2z"/><path d="m29 32.5a1 1 0 0 1 -1-1 3.5 3.5 0 0 0 -3.5-3.5 1 1 0 0 1 0-2 5.51 5.51 0 0 1 5.5 5.5 1 1 0 0 1 -1 1z"/><path d="m16 34a1 1 0 0 1 -1-1 5 5 0 0 1 5-5 1 1 0 0 1 0 2 3 3 0 0 0 -3 3 1 1 0 0 1 -1 1z"/><path d="m25.12 33.88a1 1 0 0 1 -.71-.29 2 2 0 0 0 -2.82 0 1 1 0 0 1 -1.42-1.42 4.1 4.1 0 0 1 5.66 0 1 1 0 0 1 0 1.42 1 1 0 0 1 -.71.29z"/><path d="m38 42a3 3 0 0 1 -3-3 1 1 0 0 1 2 0 1 1 0 0 0 1 1 1 1 0 0 1 0 2z"/><path d="m29 38a1 1 0 0 1 0-2 2 2 0 0 0 2-2 1 1 0 0 1 2 0 4 4 0 0 1 -4 4z"/><path d="m36 34a1 1 0 0 1 -1-1 2 2 0 0 0 -2-2 1 1 0 0 1 0-2 4 4 0 0 1 4 4 1 1 0 0 1 -1 1z"/><path d="m32 49a3 3 0 0 1 -3-3 1 1 0 0 1 2 0 1 1 0 0 0 1 1 1 1 0 0 1 0 2z"/><circle cx="21" cy="25" r="1"/><circle cx="23" cy="43" r="1"/><circle cx="31" cy="40" r="1"/><circle cx="15" cy="37" r="1"/></g><path d="m28.07 8.93a1 1 0 0 1 -.71-.29 9 9 0 0 0 -12.72 0 1 1 0 1 1 -1.42-1.42 11 11 0 0 1 15.56 0 1 1 0 0 1 0 1.42 1 1 0 0 1 -.71.29z" fill="#57b7eb"/><path d="m25.24 11.76a1 1 0 0 1 -.7-.3 5 5 0 0 0 -7.08 0 1 1 0 0 1 -1.41-1.41 7 7 0 0 1 9.9 0 1 1 0 0 1 -.71 1.71z" fill="#57b7eb"/><path d="m22.41 14.59a1 1 0 0 1 -.7-.3 1 1 0 0 0 -1.42 0 1 1 0 0 1 -1.41-1.41 3.08 3.08 0 0 1 4.24 0 1 1 0 0 1 0 1.41 1 1 0 0 1 -.71.3z" fill="#57b7eb"/><circle cx="21" cy="17" fill="#57b7eb" r="1"/><path d="m43.19 42a.87.87 0 0 0 -.24-.44 1 1 0 0 0 -1.41 0 5 5 0 0 1 -7.08 0 1 1 0 0 0 -1.41 1.44 7 7 0 0 0 5 2 7 7 0 0 0 2.73-.55v-.1a6 6 0 0 0 2.41-2.35z" fill="#e59730"/><path d="m28 43a5 5 0 0 0 -4-4.9 3.51 3.51 0 0 0 -3.5-3.1 1 1 0 0 0 0 2 1.5 1.5 0 0 1 1.5 1.5v.5a1 1 0 0 0 1 1 3 3 0 0 1 0 6 1 1 0 0 0 -1 .89 4.53 4.53 0 0 0 1 .11 5.08 5.08 0 0 0 2.06-.45 4.49 4.49 0 0 0 .18.9 5 5 0 0 0 2.76-4.45z" fill="#e59730"/><path d="m47 3a14 14 0 0 0 -9 24.72v9.28l6.94-6.17a14 14 0 1 0 2.06-27.83z" fill="#c4f236"/><path d="m54 27a16 16 0 0 1 -15-21.46 14 14 0 0 0 -1 22.18v9.28l6.94-6.17a13.74 13.74 0 0 0 12.14-4.13 16.33 16.33 0 0 1 -3.08.3z" fill="#a1d51c"/><path d="m47 12a1 1 0 0 1 -1-1v-3a1 1 0 0 1 2 0v3a1 1 0 0 1 -1 1z" fill="#93999a"/><path d="m43 12a1 1 0 0 1 -1-1v-3a1 1 0 0 1 2 0v3a1 1 0 0 1 -1 1z" fill="#93999a"/><path d="m51 12a1 1 0 0 1 -1-1v-3a1 1 0 0 1 2 0v3a1 1 0 0 1 -1 1z" fill="#93999a"/><path d="m47 27a1 1 0 0 1 -1-1v-3a1 1 0 0 1 2 0v3a1 1 0 0 1 -1 1z" fill="#656b76"/><path d="m43 27a1 1 0 0 1 -1-1v-3a1 1 0 0 1 2 0v3a1 1 0 0 1 -1 1z" fill="#656b76"/><path d="m51 27a1 1 0 0 1 -1-1v-3a1 1 0 0 1 2 0v3a1 1 0 0 1 -1 1z" fill="#656b76"/><path d="m41 18h-3a1 1 0 0 1 0-2h3a1 1 0 0 1 0 2z" fill="#656b76"/><path d="m41 22h-3a1 1 0 0 1 0-2h3a1 1 0 0 1 0 2z" fill="#656b76"/><path d="m41 14h-3a1 1 0 0 1 0-2h3a1 1 0 0 1 0 2z" fill="#656b76"/><path d="m56 18h-3a1 1 0 0 1 0-2h3a1 1 0 0 1 0 2z" fill="#93999a"/><path d="m56 22h-3a1 1 0 0 1 0-2h3a1 1 0 0 1 0 2z" fill="#93999a"/><path d="m56 14h-3a1 1 0 0 1 0-2h3a1 1 0 0 1 0 2z" fill="#93999a"/><path d="m41 11h12v12h-12z" fill="#d0d8da"/><path d="m45 15h4a0 0 0 0 1 0 0v4a1 1 0 0 1 -1 1h-4a0 0 0 0 1 0 0v-4a1 1 0 0 1 1-1z" fill="#93999a"/><path d="m45 15h4v4h-4z" fill="#57b7eb"/><path d="m49 21a6 6 0 0 1 -6-6v-4h-2v12h12v-2z" fill="#93999a"/><path d="m46 15h-1v4h4v-1a3 3 0 0 1 -3-3z" fill="#4891d3"/></svg>